HIERARCHY
ROOT Hips
{
	OFFSET 62.890800 8.863803 43.568401
	CHANNELS 6 Xposition Yposition Zposition Zrotation Xrotation Yrotation
	JOINT Chest
	{
		OFFSET -0.160400 1.630001 7.806301
		CHANNELS 6 Xposition Yposition Zposition Zrotation Xrotation Yrotation
		JOINT Chest2
		{
			OFFSET 0.000000 0.000000 3.197998
			CHANNELS 6 Xposition Yposition Zposition Zrotation Xrotation Yrotation
			JOINT Neck
			{
				OFFSET 0.000000 0.000001 7.440701
				CHANNELS 6 Xposition Yposition Zposition Zrotation Xrotation Yrotation
				JOINT Head
				{
					OFFSET 0.000000 0.000000 2.173901
					CHANNELS 6 Xposition Yposition Zposition Zrotation Xrotation Yrotation
					End Site
					{
						OFFSET 0.000000 0.000001 10.420303
					}
				}
			}
			JOINT LeftCollar
			{
				OFFSET 2.426399 -1.880099 4.759399
				CHANNELS 6 Xposition Yposition Zposition Zrotation Xrotation Yrotation
				JOINT LeftShoulder
				{
					OFFSET 4.420197 0.000000 0.000000
					CHANNELS 6 Xposition Yposition Zposition Zrotation Xrotation Yrotation
					JOINT LeftElbow
					{
						OFFSET 0.000000 -0.000001 -10.347099
						CHANNELS 6 Xposition Yposition Zposition Zrotation Xrotation Yrotation
						JOINT LeftWrist
						{
							OFFSET 0.000000 -0.000001 -12.496300
							CHANNELS 6 Xposition Yposition Zposition Zrotation Xrotation Yrotation
							End Site
							{
								OFFSET 0.000000 0.000000 -2.173901
							}
						}
					}
				}
			}
			JOINT RightCollar
			{
				OFFSET -2.781502 -1.903799 5.072601
				CHANNELS 6 Xposition Yposition Zposition Zrotation Xrotation Yrotation
				JOINT RightShoulder
				{
					OFFSET -4.012100 0.000000 0.000000
					CHANNELS 6 Xposition Yposition Zposition Zrotation Xrotation Yrotation
					JOINT RightElbow
					{
						OFFSET 0.000000 -0.000001 -10.346600
						CHANNELS 6 Xposition Yposition Zposition Zrotation Xrotation Yrotation
						JOINT RightWrist
						{
							OFFSET 0.000000 -0.000001 -12.562599
							CHANNELS 6 Xposition Yposition Zposition Zrotation Xrotation Yrotation
							End Site
							{
								OFFSET 0.000000 0.000000 -2.173901
							}
						}
					}
				}
			}
		}
	}
	JOINT LeftHip
	{
		OFFSET 2.047997 -0.047200 -2.693199
		CHANNELS 6 Xposition Yposition Zposition Zrotation Xrotation Yrotation
		JOINT LeftKnee
		{
			OFFSET 0.000000 -0.000001 -18.824400
			CHANNELS 6 Xposition Yposition Zposition Zrotation Xrotation Yrotation
			JOINT LeftAnkle
			{
				OFFSET 0.000000 -0.000002 -19.078199
				CHANNELS 6 Xposition Yposition Zposition Zrotation Xrotation Yrotation
				End Site
				{
					OFFSET 0.000000 -9.342100 0.000001
				}
			}
		}
	}
	JOINT RightHip
	{
		OFFSET -2.129898 -0.022300 -2.538300
		CHANNELS 6 Xposition Yposition Zposition Zrotation Xrotation Yrotation
		JOINT RightKnee
		{
			OFFSET 0.000000 -0.000001 -18.644600
			CHANNELS 6 Xposition Yposition Zposition Zrotation Xrotation Yrotation
			JOINT RightAnkle
			{
				OFFSET 0.000000 -0.000002 -18.801399
				CHANNELS 6 Xposition Yposition Zposition Zrotation Xrotation Yrotation
				End Site
				{
					OFFSET 0.000000 -8.914600 0.000001
				}
			}
		}
	}
}
MOTION
Frames: 6
Frame Time: 0.041667
85.401489 21.881306 42.951389 -89.069464 13.797465 -2.797519 -0.160400 1.629990 7.806301 -6.080853 19.437808 1.345210 0.000004 0.000011 3.197999 1.165407 -6.609053 0.353823 0.000001 0.000005 7.440708 5.387776 9.706803 -3.192397 0.000002 -0.000002 2.173905 1.619334 -3.440696 3.462346 2.426409 -1.880100 4.759403 -178.643803 175.299086 -181.417078 4.420203 -0.000004 0.000003 -24.146139 22.919905 -66.235452 -0.000004 0.000005 -10.347095 526.863089 -165.093336 -177.888575 -0.000002 -0.000002 -12.496301 -372.769786 -1.973496 357.720148 -2.781498 -1.903801 5.072612 -176.549134 -190.980723 180.367374 -4.012095 0.000007 -0.000008 4.897945 1.501122 434.649743 -0.000001 -0.000002 -10.346595 -386.201080 -13.162855 -11.623167 -0.000002 -0.000010 -12.562608 1503.842091 -15.790494 11.847335 2.047999 -0.047203 -2.693204 396.836559 -28.568473 14.902972 0.000010 -0.000002 -18.824402 154.096840 132.779533 -175.137061 -0.000002 0.000005 -19.078196 -373.978621 1.997794 -4.696257 -2.129896 -0.022310 -2.538310 -428.530112 -38.443832 -31.524595 -0.000009 0.000005 -18.644602 201.066863 125.919018 181.457718 -0.000000 0.000002 -18.801403 20.808909 16.775621 7.316317
85.039307 21.989202 42.946991 -89.339714 13.690587 -2.592293 -0.160403 1.629992 7.806308 -5.809310 19.286371 1.091301 0.000005 0.000003 3.198007 1.064499 -6.583208 0.389523 0.000001 -0.000002 7.440708 5.483844 9.364320 -3.162586 -0.000007 0.000007 2.173913 1.674049 -3.513137 3.568094 2.426409 -1.880100 4.759398 -178.679415 175.142101 -181.441257 4.420195 0.000002 -0.000003 -24.026102 23.148331 -66.300762 0.000020 0.000004 -10.347088 526.718999 -165.285701 -177.901525 0.000015 -0.000001 -12.496298 -372.655012 -1.824521 358.016250 -2.781499 -1.903806 5.072607 -176.504792 -190.998905 180.241124 -4.012095 0.000007 -0.000007 4.657838 1.629449 434.536171 -0.000002 -0.000009 -10.346591 -386.323313 -13.165181 -11.769227 -0.000002 0.000002 -12.562594 1504.537241 -15.735339 11.799190 2.047989 -0.047209 -2.693190 396.307684 -28.466960 14.254828 0.000001 0.000000 -18.824402 153.618536 132.267228 -174.745896 -0.000003 -0.000002 -19.078197 -373.008570 1.785174 -4.643470 -2.129903 -0.022300 -2.538290 -427.232267 -38.116755 -30.698176 -0.000012 0.000000 -18.644598 192.947175 129.192495 186.139758 0.000006 -0.000004 -18.801399 24.279890 17.454291 8.337190
84.676407 22.117607 42.928986 -89.425966 13.544116 -2.410701 -0.160395 1.629995 7.806297 -5.706076 19.182745 0.871311 -0.000005 0.000001 3.197998 1.035414 -6.562553 0.423581 -0.000003 -0.000010 7.440702 5.513494 9.039174 -3.139939 -0.000002 -0.000004 2.173904 1.700004 -3.601807 3.609644 2.426402 -1.880100 4.759394 -178.704223 175.072051 -181.517113 4.420190 0.000010 0.000004 -24.000219 23.376437 -66.372076 0.000006 -0.000010 -10.347094 526.582559 -165.513228 -177.909298 -0.000003 -0.000006 -12.496296 -372.564471 -1.665196 358.304320 -2.781502 -1.903802 5.072598 -176.557644 -190.957445 180.152933 -4.012100 0.000007 -0.000002 4.413275 1.844921 434.359159 -0.000001 0.000007 -10.346598 -386.746703 -13.154053 -11.947352 0.000009 -0.000006 -12.562597 1505.497292 -15.708086 11.790355 2.047998 -0.047197 -2.693208 396.020843 -28.541257 13.788794 0.000009 -0.000003 -18.824402 152.540186 131.326465 -173.982103 0.000002 0.000004 -19.078199 -371.929072 1.733624 -4.488602 -2.129894 -0.022309 -2.538304 -426.033022 -37.711267 -29.808551 -0.000007 0.000002 -18.644602 187.687397 131.879997 188.618666 0.000002 -0.000004 -18.801397 26.470572 17.970301 9.071223
84.316711 22.267405 42.893890 -89.841003 13.369691 -2.155525 -0.160401 1.630004 7.806299 -5.402212 19.116441 0.750308 0.000001 0.000008 3.197988 1.133041 -6.545675 0.416246 -0.000005 -0.000011 7.440701 5.551035 8.761099 -3.109221 0.000001 0.000000 2.173904 1.676855 -3.683650 3.604028 2.426403 -1.880109 4.759398 -178.648611 175.171089 -181.583393 4.420196 0.000002 0.000011 -24.014255 23.587032 -66.457795 -0.000008 -0.000002 -10.347097 526.352245 -165.763705 -177.918136 0.000005 -0.000003 -12.496291 -372.468712 -1.516069 358.508625 -2.781504 -1.903805 5.072600 -176.592683 -190.983578 180.148247 -4.012102 -0.000008 -0.000004 4.127821 1.987426 434.123381 -0.000001 -0.000002 -10.346595 -386.901912 -13.190607 -12.021983 0.000007 -0.000007 -12.562602 1506.113321 -15.703431 11.840971 2.047999 -0.047198 -2.693202 397.152360 -28.824600 13.857102 0.000000 0.000002 -18.824390 150.282084 129.734225 -172.725416 -0.000002 -0.000003 -19.078196 -370.867743 1.892222 -4.092079 -2.129896 -0.022299 -2.538302 -424.010658 -37.424638 -28.705055 0.000008 0.000000 -18.644604 185.076297 133.654644 189.311383 0.000008 -0.000001 -18.801397 26.905830 18.277047 9.709204
83.964607 22.437609 42.842587 -89.545276 13.171070 -2.003028 -0.160401 1.630005 7.806293 -5.662272 19.059288 0.614337 0.000002 0.000001 3.198000 0.965103 -6.549240 0.336530 -0.000003 0.000011 7.440700 5.728455 8.541912 -3.065148 -0.000001 -0.000007 2.173920 1.550060 -3.757166 3.469429 2.426402 -1.880096 4.759400 -178.363601 175.217643 -181.619402 4.420187 0.000009 0.000009 -24.017416 23.684291 -66.703054 0.000007 -0.000003 -10.347101 526.156355 -166.001983 -177.929297 0.000008 -0.000005 -12.496302 -372.325387 -1.362205 358.668697 -2.781502 -1.903793 5.072600 -176.381617 -190.986364 180.033910 -4.012094 0.000015 0.000002 3.753493 2.257668 433.986286 0.000002 0.000000 -10.346597 -386.625426 -13.376096 -11.951824 -0.000001 0.000007 -12.562602 1506.095835 -15.700650 11.793445 2.047996 -0.047202 -2.693208 398.539735 -29.437053 14.400523 0.000000 -0.000007 -18.824398 146.358660 127.562621 -170.470061 0.000004 -0.000016 -19.078203 -369.658307 2.417333 -3.699119 -2.129894 -0.022298 -2.538310 -422.496268 -37.100484 -27.646389 -0.000013 -0.000003 -18.644606 185.047638 134.421415 188.602642 0.000003 -0.000006 -18.801399 25.259467 18.352078 10.247082
83.623596 22.623903 42.775986 -89.092065 12.956672 -1.875041 -0.160403 1.630002 7.806313 -6.001446 19.027234 0.531663 0.000003 0.000007 3.197999 1.348728 -6.560407 0.334878 -0.000002 -0.000010 7.440697 5.292428 8.342154 -3.083254 -0.000004 0.000002 2.173905 1.501461 -3.801941 3.360891 2.426401 -1.880106 4.759394 -178.604830 175.266397 -181.679084 4.420190 -0.000001 -0.000006 -24.047600 23.658962 -67.055949 -0.000003 -0.000008 -10.347095 526.010736 -166.272923 -177.947820 -0.000004 -0.000003 -12.496295 -372.201323 -1.235820 358.734595 -2.781501 -1.903805 5.072594 -176.683497 -190.987061 179.788283 -4.012102 0.000001 -0.000006 3.304540 2.576929 433.933065 0.000002 -0.000002 -10.346599 -386.588051 -13.527774 -11.912525 -0.000001 -0.000008 -12.562594 1506.246974 -15.612737 11.794511 2.047987 -0.047203 -2.693186 400.626030 -30.300946 15.454271 0.000009 -0.000000 -18.824404 140.147053 125.038306 -166.578055 0.000005 -0.000008 -19.078203 -367.775279 3.137345 -3.091312 -2.129902 -0.022304 -2.538291 -421.082856 -36.808299 -26.691375 -0.000003 0.000001 -18.644602 187.441810 134.246617 186.657172 0.000008 -0.000004 -18.801399 21.913677 18.069346 10.660396
